<svg id="Laag_1" data-name="Laag 1" xmlns="http://www.w3.org/2000/svg" viewBox="0 0 500 700"><defs><style>.cls-1{fill:#127a7b;}.cls-2{fill:#fff;}.cls-3{fill:#bfefee;}</style></defs><title>docx</title><path class="cls-1" d="M262,870a11.51,11.51,0,0,1-11.5-11.5v-676A11.51,11.51,0,0,1,262,171H616.36L749.5,304.14V858.5A11.51,11.51,0,0,1,738,870Z" transform="translate(-250 -170.5)"/><path class="cls-2" d="M616.15,171.5l.21.21L749,304.35V858.5a11,11,0,0,1-11,11H262a11,11,0,0,1-11-11v-676a11,11,0,0,1,11-11H616.15m1.41-1H262a12,12,0,0,0-12,12v676a12,12,0,0,0,12,12H738a12,12,0,0,0,12-12V303.94L617.06,171l.5-.5Z" transform="translate(-250 -170.5)"/><path class="cls-3" d="M616,171V285a20,20,0,0,0,20,20H750v-1.06L617.06,171Z" transform="translate(-250 -170.5)"/></svg>