<svg version="1.1" xmlns="http://www.w3.org/2000/svg" xmlns:xlink="http://www.w3.org/1999/xlink" width="47.99716" height="47.99716"><defs><linearGradient x1="13.87517" y1="9.82523" x2="64.90157" y2="68.9515" gradientUnits="userSpaceOnUse" id="color-1"><stop offset="0" stop-color="#000000" stop-opacity="0.3"></stop><stop offset="1" stop-color="#000000" stop-opacity="0"></stop></linearGradient><filter id="dropshadow-base"><feColorMatrix type="matrix" values="0 0 0 0 0  0 0 0 0 0  0 0 0 0 0  0 0 0 .8 0"></feColorMatrix> <feOffset dx="0" dy="1"></feOffset> <feGaussianBlur stdDeviation="1"></feGaussianBlur> <feComposite in="SourceGraphic"></feComposite></filter><filter id="dropshadow-banner" x="-10%" y="-10%" width="120%" height="130%"><feColorMatrix type="matrix" values="0 0 0 0 0  0 0 0 0 0  0 0 0 0 0  0 0 0 .4 0"></feColorMatrix> <feOffset dx="0" dy="1"></feOffset> <feGaussianBlur stdDeviation="0.5"></feGaussianBlur> <feComposite in="SourceGraphic"></feComposite></filter></defs><g transform="translate(-0.00142,-0.00142)"><g fill="none" fill-rule="nonzero" stroke="none" stroke-width="none" stroke-linecap="butt" stroke-linejoin="miter" stroke-miterlimit="10" stroke-dasharray="" stroke-dashoffset="0" font-family="none" font-weight="none" font-size="none" text-anchor="none" style="mix-blend-mode: normal"><path d="M7,43c-1.10457,0 -2,-0.89543 -2,-2v-34c0,-1.10457 0.89543,-2 2,-2h34c1.10457,0 2,0.89543 2,2v34c0,1.10457 -0.89543,2 -2,2z" id="base 1 5" fill="#ffffff" stroke-width="1"></path><path d="M14.01751,38.03242c-0.08795,-0.08795 -0.14234,-0.20944 -0.14234,-0.34365v-27.37754c0,-0.2684 0.21758,-0.486 0.486,-0.486h14.39994l14.2389,14.2389v16.93587c0,1.10457 -0.89543,2 -2,2h-22.01491z" fill="url(#color-1)" stroke-width="1"></path><path d="M34.12483,37.68877c0,0.26841 -0.21759,0.48599 -0.48599,0.48599h-19.27767c-0.26841,0 -0.48599,-0.21759 -0.48599,-0.48599v-27.37753c0,-0.26841 0.21759,-0.48599 0.48599,-0.48599h14.39994l-0.02025,0.02025l5.38398,5.38398z" fill="none" stroke-width="0"></path><g id="Laag_1 2" stroke-width="1"><path d="M14.36116,38.15451c-0.25713,-0.00022 -0.46552,-0.20861 -0.46574,-0.46574v-27.37753c0.00022,-0.25713 0.20861,-0.46552 0.46574,-0.46574h14.35134l5.39208,5.39208v22.4512c-0.00022,0.25713 -0.20861,0.46552 -0.46574,0.46574z" fill="#127a7b"></path><path d="M28.704,9.86574l0.0085,0.0085l5.37183,5.37183v22.44269c0,0.24604 -0.19945,0.44549 -0.44549,0.44549h-19.27767c-0.24604,0 -0.44549,-0.19945 -0.44549,-0.44549v-27.37753c0,-0.24604 0.19945,-0.44549 0.44549,-0.44549h14.34283M28.7611,9.82524h-14.39994c-0.26841,0 -0.48599,0.21759 -0.48599,0.48599v27.37753c0,0.26841 0.21759,0.48599 0.48599,0.48599h19.27767c0.26841,0 0.48599,-0.21759 0.48599,-0.48599v-22.4593l-5.38398,-5.38398z" fill="#ffffff"></path><path d="M28.69792,9.84549v4.61692c0,0.44734 0.36264,0.80999 0.80999,0.80999h4.61692v-0.04293l-5.38398,-5.38398z" fill="#bfefee"></path></g><path d="M2,24c0,-12.15026 9.84974,-22 22,-22c12.15026,0 22,9.84974 22,22c0,12.15026 -9.84974,22 -22,22c-12.15026,0 -22,-9.84974 -22,-22z" id="base 1 1 1" fill="none" stroke-width="1"></path><g id="Laag_1 1 1" fill="#000000" stroke-width="1" font-family="Roboto, sans-serif" font-weight="400" font-size="14" text-anchor="start"></g><rect x="2" y="2" width="44" height="22" fill="none" stroke-width="1"></rect><path d="M2,24v-22h44v22z" fill="none" stroke-width="1"></path><path d="M2,24v-22h44v22z" fill="none" stroke-width="1"></path><path d="M2,24v-22h44v22z" fill="none" stroke-width="1"></path><path d="M2,24v-22h44v22z" fill="none" stroke-width="1"></path></g></g></svg>